<svg id="Layer_1" data-name="Layer 1" xmlns="http://www.w3.org/2000/svg" viewBox="0 0 841.89 308.35"><defs><style>.cls-1{fill:none;}.cls-2,.cls-3{fill:#231f20;}.cls-3{font-size:52.11px;font-family:JosefinSans-Regular, Josefin Sans;letter-spacing:0.06em;}.cls-4{letter-spacing:0.02em;}.cls-5{letter-spacing:-0.04em;}.cls-6{letter-spacing:-0.1em;}.cls-7{letter-spacing:-0.08em;}.cls-8{letter-spacing:-0.09em;}.cls-9{letter-spacing:0.01em;}.cls-10{letter-spacing:-0.13em;}</style></defs><title>III JIMGFARSLVT_logo_Square PB</title><path class="cls-1" d="M76.87,154.14v31.74q7.45-1.2,15.58-2.41a120.33,120.33,0,0,1-13.12-30.42Z"/><polygon class="cls-2" points="179.11 124.92 179.11 143.94 188.45 134.5 179.11 124.92"/><polygon class="cls-2" points="179.11 82.24 179.11 105.44 189.96 93.53 179.11 82.24"/><polygon class="cls-2" points="207.29 147.51 207.29 122.44 194.38 134.51 207.29 147.51"/><path class="cls-2" d="M179.11,148.77v23.95q13.66-1.36,28.18-2.62V153.84l-16-16.43Z"/><polygon class="cls-2" points="207.29 106.73 207.29 82.01 195.4 93.73 207.29 106.73"/><polygon class="cls-2" points="179.11 109.78 179.11 119.12 191.41 131.51 207.29 115.44 207.29 111.56 192.71 96.38 179.11 109.78"/><path class="cls-2" d="M207.29,58.16V35.47L196.62,47.63C200.7,51.75,204.59,55.62,207.29,58.16Z"/><polygon class="cls-2" points="179.11 67.57 179.11 75.95 192.58 90.66 207.29 74.5 207.29 64.44 194.01 50.6 179.11 67.57"/><polygon class="cls-2" points="179.11 35.06 179.11 63.29 191.95 48.44 179.11 35.06"/><path class="cls-2" d="M98.22,143.12a174.26,174.26,0,0,1-18.89,9.93,120.33,120.33,0,0,0,13.12,30.42l5.77-.85Z"/><path class="cls-2" d="M196,241.86c1.57,0,3.13,0,4.69-.1s3.39-.18,5.07-.31L191,228.08l-11.9,10.44v2.17c3.35.46,6.73.79,10.16,1C191.48,241.79,193.7,241.86,196,241.86Z"/><path class="cls-2" d="M206.77,31.29H180.63c3.11,3.22,8.49,8.75,13.87,14.2Z"/><path class="cls-2" d="M214.72,38l.82,131.42q9.5-.76,19.34-1.47V62.41C225.63,52.17,218.77,43.41,214.72,38Z"/><polygon class="cls-2" points="179.11 217.27 179.11 233.92 188.09 225.43 179.11 217.27"/><path class="cls-2" d="M207.29,236.36V213.79l-12.9,11.32C199.34,229.49,204.15,233.71,207.29,236.36Z"/><path class="cls-2" d="M99.77,142.16v40.23q9.62-1.39,20.06-2.78V127.45A164,164,0,0,1,99.77,142.16Z"/><path class="cls-2" d="M148.35,95.5l-.6.86v79.76q11.17-1.31,23.09-2.56l.79-127.7A179.08,179.08,0,0,1,148.35,95.5Z"/><path class="cls-2" d="M121.38,126.11V179.4c7.93-1.05,16.22-2.08,24.82-3.1V98.59A161.2,161.2,0,0,1,121.38,126.11Z"/><path class="cls-2" d="M179.11,211.47c3,2.69,7.51,6.73,12.21,10.91l16-15.09V189.37q-14,1.2-28.18,2.63Z"/><path class="cls-2" d="M105.3,201a121.26,121.26,0,0,0,46,32.38,117.61,117.61,0,0,0,11.62,3.95c2.48.7,5,1.32,7.54,1.87l.29-46.28Q138.35,196.27,105.3,201Z"/><path class="cls-2" d="M301.34,164.27,309,164a120.53,120.53,0,0,0,7.73-36.65c-5.3-2.7-10.43-5.59-15.35-8.6Z"/><path class="cls-2" d="M262.08,89.45l-.95-.85v77.63q10.26-.6,20.84-1.12V105.63C274.7,100.23,268,94.74,262.08,89.45Z"/><path class="cls-2" d="M283.52,106.77V165q8-.39,16.27-.71V117.77C294.09,114.23,288.65,110.53,283.52,106.77Z"/><path class="cls-2" d="M236.43,64.12V167.83q11.35-.81,23.15-1.51V87.21C250.82,79.27,243.05,71.37,236.43,64.12Z"/><path class="cls-2" d="M216,240.18c3.77-.63,7.49-1.42,11.13-2.39a120.06,120.06,0,0,0,11.62-3.73,121.34,121.34,0,0,0,60.63-50.45c-27.28,1.08-55.23,2.73-83.7,5.06Z"/><path class="cls-2" d="M.08,200.56v18.68C35.46,211.92,70.61,205.88,105.3,201q-2.88-3.27-5.53-6.73c-.52-.69-1-1.38-1.55-2.08q-3.06-4.2-5.77-8.67-8.11,1.22-15.58,2.41V154.14l2.46-1.09c-.28-1-.53-2-.78-3.06-21,9.53-46.82,16.3-78.55,17.85l.15,3.09c5.9-.29,11.58-.77,17.09-1.4v27.21C6,199.09.08,200.56.08,200.56Zm54.81-38.5a192.18,192.18,0,0,0,20.43-7.27v31.33q-11,1.77-20.43,3.43Zm-18.66,4.56c6-1.18,11.65-2.57,17.11-4.13v27.33Q44,191.47,36.23,193Zm-17.45,2.72q8.24-1,15.9-2.44v26.35c-6.07,1.16-11.37,2.23-15.9,3.17Z"/><path class="cls-2" d="M392.31,143.78h-.07c-27.53,0-53.11-8.3-75.43-19.87,0,1.15-.07,2.28-.12,3.42,1.1.56,2.21,1.11,3.32,1.65l.44,34.63L309,164a120.15,120.15,0,0,1-9.6,19.63c32.76-1.3,64.56-1.78,95.16-1.61V162.74q-7.89-.06-15.67,0V146.22c4.41.42,8.86.66,13.38.66h.08c.74,0,1.47,0,2.21,0v-3.1C393.78,143.75,393.05,143.78,392.31,143.78Zm-70.74-14a194.7,194.7,0,0,0,18.08,7.56v25.82c-5.95.12-11.82.27-17.65.44ZM341.2,163.1V137.85a171.86,171.86,0,0,0,16.61,4.89l.39,20.1Q349.62,162.93,341.2,163.1Zm36.11-.39q-8.87,0-17.56.11l-.39-19.74a151,151,0,0,0,17.95,3Z"/><path class="cls-2" d="M223,298.47l-.16-6.9H216.3L216,240.18q-2.82.48-5.68.82l-3,.32-1.58.13,1.58,1.43v3.62l-16.38,16.36-11.8-10.12V240.69l-2.1-.32c-.66-.11-1.33-.21-2-.33-1.55-.27-3.08-.57-4.6-.89l-.32,52.42h-4.89V298h-4.57v10.33H227.6v-10Zm-15.73-46.54V276.7c-3.23-2.66-8.26-6.92-13.42-11.31C199.35,259.74,204.56,254.45,207.29,251.93ZM187.77,266l-8.66,8.64V258.12Zm-8.66,14.76c3-3.19,7.25-7.6,11.59-12.09l16.59,15.12v7.77H179.11Z"/><path class="cls-2" d="M196,0A121,121,0,0,0,78.55,150c33.06-15,54.14-36.91,67.24-56.23A175,175,0,0,0,171.71,33l.09-14.15h2.1v-3.9h3.37v3.9h1.84V25.7h28.18V18.82h1.9v-3.9h3.36v3.9h2.06l.08,13.88a346.89,346.89,0,0,0,49.5,54.49c14,12.42,31.91,26,52.62,36.72,0-1,.06-2,.06-3A120.93,120.93,0,0,0,196,0Z"/><text class="cls-3" transform="translate(441.14 81.83)">III JORNA<tspan class="cls-4" x="268.55" y="0">D</tspan><tspan x="308.68" y="0">AS </tspan><tspan class="cls-5"><tspan x="0" y="63.08">DO INTERN</tspan><tspan class="cls-6" x="280.96" y="63.08">A</tspan><tspan class="cls-7" x="312.22" y="63.08">T</tspan><tspan x="338.53" y="63.08">O</tspan></tspan><tspan class="cls-8"><tspan x="0" y="126.15">MÉDICO DE MGF</tspan></tspan><tspan class="cls-9"><tspan x="0" y="189.23">ARS </tspan><tspan class="cls-10" x="118.7" y="189.23">L</tspan><tspan x="144.13" y="189.23">VT</tspan></tspan></text></svg>